SubSource-HROTdd_VROTdd_SLENx_SANGx.ufo
<glyph name="quotedbl" format="2">
  <advance width="496"/>
  <unicode hex="0022"/>
  <outline>
    <contour>
      <point x="103" y="438" type="curve" smooth="yes"/>
      <point x="103" y="640" type="line" smooth="yes"/>
      <point x="103" y="708"/>
      <point x="193" y="708"/>
      <point x="193" y="640" type="curve" smooth="yes"/>
      <point x="193" y="438" type="line" smooth="yes"/>
      <point x="193" y="371"/>
      <point x="103" y="371"/>
    </contour>
    <contour>
      <point x="303" y="438" type="curve" smooth="yes"/>
      <point x="303" y="640" type="line" smooth="yes"/>
      <point x="303" y="708"/>
      <point x="393" y="708"/>
      <point x="393" y="640" type="curve" smooth="yes"/>
      <point x="393" y="438" type="line" smooth="yes"/>
      <point x="393" y="371"/>
      <point x="303" y="371"/>
    </contour>
  </outline>
</glyph>
<glyph name="parenright" format="2">
  <advance width="452"/>
  <unicode hex="0029"/>
  <outline>
    <contour>
      <point x="192" y="670" type="curve" smooth="yes"/>
      <point x="351" y="626"/>
      <point x="502" y="465"/>
      <point x="502" y="186" type="curve" smooth="yes"/>
      <point x="502" y="-93"/>
      <point x="351" y="-254"/>
      <point x="192" y="-298" type="curve" smooth="yes"/>
      <point x="127" y="-316"/>
      <point x="103" y="-230"/>
      <point x="168" y="-212" type="curve" smooth="yes"/>
      <point x="297" y="-176"/>
      <point x="412" y="-41"/>
      <point x="412" y="186" type="curve" smooth="yes"/>
      <point x="412" y="413"/>
      <point x="297" y="548"/>
      <point x="168" y="584" type="curve" smooth="yes"/>
      <point x="103" y="602"/>
      <point x="127" y="688"/>
    </contour>
  </outline>
</glyph>
<glyph name="period" format="2">
  <advance width="260"/>
  <unicode hex="002E"/>
  <outline>
    <contour>
      <point x="236" y="-41" type="curve" smooth="yes"/>
      <point x="237" y="-41"/>
      <point x="212" y="-48"/>
      <point x="211" y="-46" type="curve" smooth="yes"/>
      <point x="186" y="17"/>
      <point x="270" y="50"/>
      <point x="295" y="-12" type="curve" smooth="yes"/>
      <point x="321" y="-77"/>
      <point x="296" y="-114"/>
      <point x="270" y="-125" type="curve" smooth="yes"/>
      <point x="207" y="-150"/>
      <point x="174" y="-66"/>
    </contour>
  </outline>
</glyph>
<glyph name="one" format="2">
  <advance width="344"/>
  <unicode hex="0031"/>
  <outline>
    <contour>
      <point x="83" y="615" type="curve" smooth="yes"/>
      <point x="141" y="617"/>
      <point x="211" y="617"/>
      <point x="266" y="594" type="curve" smooth="yes"/>
      <point x="337" y="564"/>
      <point x="384" y="500"/>
      <point x="384" y="350" type="curve" smooth="yes"/>
      <point x="384" y="201"/>
      <point x="384" y="135"/>
      <point x="384" y="45" type="curve" smooth="yes"/>
      <point x="384" y="-32"/>
      <point x="366" y="-71"/>
      <point x="330" y="-90" type="curve" smooth="yes"/>
      <point x="270" y="-121"/>
      <point x="228" y="-41"/>
      <point x="288" y="-10" type="curve" smooth="yes"/>
      <point x="292" y="-8"/>
      <point x="294" y="38"/>
      <point x="294" y="45" type="curve" smooth="yes"/>
      <point x="294" y="179"/>
      <point x="294" y="250"/>
      <point x="294" y="350" type="curve" smooth="yes"/>
      <point x="294" y="444"/>
      <point x="276" y="492"/>
      <point x="232" y="510" type="curve" smooth="yes"/>
      <point x="191" y="527"/>
      <point x="129" y="527"/>
      <point x="87" y="525" type="curve" smooth="yes"/>
      <point x="19" y="522"/>
      <point x="16" y="612"/>
    </contour>
  </outline>
</glyph>
<glyph name="six" format="2">
  <advance width="534"/>
  <unicode hex="0036"/>
  <outline>
    <contour>
      <point x="143" y="342" type="curve" smooth="yes"/>
      <point x="205" y="360"/>
      <point x="276" y="381"/>
      <point x="358" y="370" type="curve" smooth="yes"/>
      <point x="496" y="351"/>
      <point x="621" y="226"/>
      <point x="621" y="101" type="curve" smooth="yes"/>
      <point x="621" y="-29"/>
      <point x="532" y="-128"/>
      <point x="397" y="-128" type="curve" smooth="yes"/>
      <point x="282" y="-128"/>
      <point x="160" y="-41"/>
      <point x="160" y="194" type="curve" smooth="yes"/>
      <point x="160" y="460"/>
      <point x="309" y="557"/>
      <point x="430" y="567" type="curve" smooth="yes"/>
      <point x="462" y="570"/>
      <point x="487" y="573"/>
      <point x="499" y="574" type="curve" smooth="yes"/>
      <point x="566" y="585"/>
      <point x="580" y="496"/>
      <point x="513" y="486" type="curve" smooth="yes"/>
      <point x="499" y="483"/>
      <point x="474" y="480"/>
      <point x="438" y="477" type="curve" smooth="yes"/>
      <point x="347" y="469"/>
      <point x="250" y="394"/>
      <point x="250" y="194" type="curve" smooth="yes"/>
      <point x="250" y="30"/>
      <point x="317" y="-38"/>
      <point x="397" y="-38" type="curve" smooth="yes"/>
      <point x="482" y="-38"/>
      <point x="531" y="19"/>
      <point x="531" y="101" type="curve" smooth="yes"/>
      <point x="531" y="182"/>
      <point x="436" y="269"/>
      <point x="346" y="280" type="curve" smooth="yes"/>
      <point x="280" y="289"/>
      <point x="217" y="270"/>
      <point x="167" y="256" type="curve" smooth="yes"/>
      <point x="102" y="237"/>
      <point x="78" y="324"/>
    </contour>
  </outline>
</glyph>
<glyph name="nine" format="2">
  <advance width="534"/>
  <unicode hex="0039"/>
  <outline>
    <contour>
      <point x="464" y="337" type="curve" smooth="yes"/>
      <point x="459" y="246"/>
      <point x="403" y="183"/>
      <point x="330" y="170" type="curve" smooth="yes"/>
      <point x="220" y="150"/>
      <point x="153" y="204"/>
      <point x="153" y="338" type="curve" smooth="yes"/>
      <point x="153" y="468"/>
      <point x="242" y="567"/>
      <point x="377" y="567" type="curve" smooth="yes"/>
      <point x="492" y="567"/>
      <point x="614" y="480"/>
      <point x="614" y="245" type="curve" smooth="yes"/>
      <point x="614" y="-25"/>
      <point x="480" y="-138"/>
      <point x="337" y="-128" type="curve" smooth="yes"/>
      <point x="290" y="-124"/>
      <point x="234" y="-102"/>
      <point x="172" y="-58" type="curve" smooth="yes"/>
      <point x="117" y="-18"/>
      <point x="169" y="55"/>
      <point x="224" y="16" type="curve" smooth="yes"/>
      <point x="268" y="-16"/>
      <point x="310" y="-36"/>
      <point x="343" y="-38" type="curve" smooth="yes"/>
      <point x="447" y="-46"/>
      <point x="524" y="50"/>
      <point x="524" y="245" type="curve" smooth="yes"/>
      <point x="524" y="409"/>
      <point x="457" y="477"/>
      <point x="377" y="477" type="curve" smooth="yes"/>
      <point x="292" y="477"/>
      <point x="243" y="420"/>
      <point x="243" y="338" type="curve" smooth="yes"/>
      <point x="243" y="268"/>
      <point x="257" y="248"/>
      <point x="314" y="258" type="curve" smooth="yes"/>
      <point x="349" y="265"/>
      <point x="371" y="298"/>
      <point x="374" y="343" type="curve" smooth="yes"/>
      <point x="378" y="410"/>
      <point x="468" y="405"/>
    </contour>
  </outline>
</glyph>
<glyph name="colon" format="2">
  <advance width="260"/>
  <unicode hex="003A"/>
  <outline>
    <contour>
      <point x="253" y="-125" type="curve" smooth="yes"/>
      <point x="169" y="-112"/>
      <point x="169" y="-4"/>
      <point x="253" y="9" type="curve" smooth="yes"/>
      <point x="320" y="18"/>
      <point x="333" y="-71"/>
      <point x="267" y="-81" type="curve" smooth="yes"/>
      <point x="264" y="-81"/>
      <point x="264" y="-35"/>
      <point x="267" y="-35" type="curve" smooth="yes"/>
      <point x="333" y="-45"/>
      <point x="320" y="-134"/>
    </contour>
    <contour>
      <point x="253" y="235" type="curve" smooth="yes"/>
      <point x="169" y="248"/>
      <point x="169" y="356"/>
      <point x="253" y="369" type="curve" smooth="yes"/>
      <point x="320" y="378"/>
      <point x="333" y="289"/>
      <point x="267" y="279" type="curve" smooth="yes"/>
      <point x="264" y="279"/>
      <point x="264" y="325"/>
      <point x="267" y="325" type="curve" smooth="yes"/>
      <point x="333" y="315"/>
      <point x="320" y="226"/>
    </contour>
  </outline>
</glyph>
<glyph name="at" format="2">
  <advance width="956"/>
  <unicode hex="0040"/>
  <outline>
    <contour>
      <point x="795" y="308" type="curve" smooth="yes"/>
      <point x="795" y="254"/>
      <point x="795" y="189"/>
      <point x="795" y="144" type="curve" smooth="yes"/>
      <point x="795" y="22"/>
      <point x="712" y="-63"/>
      <point x="602" y="-63" type="curve" smooth="yes"/>
      <point x="491" y="-63"/>
      <point x="408" y="25"/>
      <point x="408" y="147" type="curve" smooth="yes"/>
      <point x="408" y="267"/>
      <point x="481" y="356"/>
      <point x="556" y="384" type="curve" smooth="yes"/>
      <point x="644" y="417"/>
      <point x="695" y="388"/>
      <point x="695" y="250" type="curve" smooth="yes"/>
      <point x="695" y="164"/>
      <point x="780" y="87"/>
      <point x="841" y="70" type="curve" smooth="yes"/>
      <point x="917" y="49"/>
      <point x="942" y="104"/>
      <point x="942" y="192" type="curve" smooth="yes"/>
      <point x="942" y="363"/>
      <point x="812" y="479"/>
      <point x="620" y="479" type="curve" smooth="yes"/>
      <point x="420" y="479"/>
      <point x="277" y="336"/>
      <point x="277" y="140" type="curve" smooth="yes"/>
      <point x="277" y="-60"/>
      <point x="415" y="-184"/>
      <point x="608" y="-184" type="curve" smooth="yes"/>
      <point x="646" y="-184"/>
      <point x="696" y="-180"/>
      <point x="712" y="-139" type="curve" smooth="yes"/>
      <point x="738" y="-77"/>
      <point x="821" y="-110"/>
      <point x="796" y="-173" type="curve" smooth="yes"/>
      <point x="763" y="-254"/>
      <point x="684" y="-274"/>
      <point x="608" y="-274" type="curve" smooth="yes"/>
      <point x="367" y="-274"/>
      <point x="187" y="-110"/>
      <point x="187" y="140" type="curve" smooth="yes"/>
      <point x="187" y="386"/>
      <point x="370" y="569"/>
      <point x="620" y="569" type="curve" smooth="yes"/>
      <point x="864" y="569"/>
      <point x="1032" y="410"/>
      <point x="1032" y="192" type="curve" smooth="yes"/>
      <point x="1032" y="37"/>
      <point x="950" y="-53"/>
      <point x="817" y="-16" type="curve" smooth="yes"/>
      <point x="724" y="9"/>
      <point x="605" y="118"/>
      <point x="605" y="250" type="curve" smooth="yes"/>
      <point x="605" y="285"/>
      <point x="610" y="308"/>
      <point x="588" y="300" type="curve" smooth="yes"/>
      <point x="541" y="282"/>
      <point x="498" y="221"/>
      <point x="498" y="147" type="curve" smooth="yes"/>
      <point x="498" y="77"/>
      <point x="539" y="27"/>
      <point x="602" y="27" type="curve" smooth="yes"/>
      <point x="664" y="27"/>
      <point x="705" y="74"/>
      <point x="705" y="144" type="curve" smooth="yes"/>
      <point x="705" y="211"/>
      <point x="705" y="272"/>
      <point x="705" y="308" type="curve" smooth="yes"/>
      <point x="705" y="376"/>
      <point x="795" y="376"/>
    </contour>
  </outline>
</glyph>
<glyph name="A" format="2">
  <advance width="651"/>
  <unicode hex="0041"/>
  <outline>
    <contour>
      <point x="166" y="-26" type="curve" smooth="yes"/>
      <point x="193" y="-11"/>
      <point x="208" y="2"/>
      <point x="222" y="31" type="curve" smooth="yes"/>
      <point x="250" y="90"/>
      <point x="265" y="135"/>
      <point x="342" y="136" type="curve" smooth="yes"/>
      <point x="387" y="137"/>
      <point x="416" y="137"/>
      <point x="468" y="137" type="curve" smooth="yes"/>
      <point x="474" y="137"/>
      <point x="347" y="173"/>
      <point x="342" y="173" type="curve" smooth="yes"/>
      <point x="297" y="173"/>
      <point x="283" y="173"/>
      <point x="266" y="173" type="curve" smooth="yes"/>
      <point x="122" y="173"/>
      <point x="162" y="202"/>
      <point x="257" y="293" type="curve" smooth="yes"/>
      <point x="293" y="329"/>
      <point x="267" y="426"/>
      <point x="298" y="521" type="curve" smooth="yes"/>
      <point x="343" y="653"/>
      <point x="495" y="606"/>
      <point x="540" y="474" type="curve" smooth="yes"/>
      <point x="582" y="350"/>
      <point x="648" y="162"/>
      <point x="685" y="53" type="curve" smooth="yes"/>
      <point x="704" y="-3"/>
      <point x="724" y="-43"/>
      <point x="713" y="-79" type="curve" smooth="yes"/>
      <point x="693" y="-143"/>
      <point x="607" y="-116"/>
      <point x="627" y="-51" type="curve" smooth="yes"/>
      <point x="628" y="-50"/>
      <point x="601" y="22"/>
      <point x="601" y="23" type="curve" smooth="yes"/>
      <point x="562" y="132"/>
      <point x="496" y="320"/>
      <point x="454" y="446" type="curve" smooth="yes"/>
      <point x="441" y="487"/>
      <point x="397" y="534"/>
      <point x="384" y="493" type="curve" smooth="yes"/>
      <point x="365" y="437"/>
      <point x="382" y="290"/>
      <point x="319" y="229" type="curve" smooth="yes"/>
      <point x="315" y="225"/>
      <point x="260" y="263"/>
      <point x="266" y="263" type="curve" smooth="yes"/>
      <point x="292" y="263"/>
      <point x="312" y="263"/>
      <point x="342" y="263" type="curve" smooth="yes"/>
      <point x="484" y="263"/>
      <point x="620" y="47"/>
      <point x="468" y="47" type="curve" smooth="yes"/>
      <point x="416" y="47"/>
      <point x="389" y="47"/>
      <point x="344" y="46" type="curve" smooth="yes"/>
      <point x="319" y="46"/>
      <point x="312" y="11"/>
      <point x="302" y="-9" type="curve" smooth="yes"/>
      <point x="280" y="-54"/>
      <point x="253" y="-79"/>
      <point x="212" y="-104" type="curve" smooth="yes"/>
      <point x="154" y="-138"/>
      <point x="108" y="-60"/>
    </contour>
  </outline>
</glyph>
<glyph name="I" format="2">
  <advance width="270"/>
  <unicode hex="0049"/>
  <outline>
    <contour>
      <point x="195" y="-39" type="curve" smooth="yes"/>
      <point x="207" y="-17"/>
      <point x="210" y="18"/>
      <point x="210" y="51" type="curve" smooth="yes"/>
      <point x="210" y="192"/>
      <point x="210" y="292"/>
      <point x="210" y="387" type="curve" smooth="yes"/>
      <point x="210" y="425"/>
      <point x="206" y="475"/>
      <point x="192" y="528" type="curve" smooth="yes"/>
      <point x="173" y="593"/>
      <point x="260" y="617"/>
      <point x="278" y="552" type="curve" smooth="yes"/>
      <point x="296" y="491"/>
      <point x="300" y="431"/>
      <point x="300" y="387" type="curve" smooth="yes"/>
      <point x="300" y="246"/>
      <point x="300" y="146"/>
      <point x="300" y="51" type="curve" smooth="yes"/>
      <point x="300" y="-2"/>
      <point x="293" y="-47"/>
      <point x="275" y="-81" type="curve" smooth="yes"/>
      <point x="243" y="-141"/>
      <point x="163" y="-98"/>
    </contour>
  </outline>
</glyph>
<glyph name="N" format="2">
  <advance width="688"/>
  <unicode hex="004E"/>
  <outline>
    <contour>
      <point x="188" y="-25" type="curve" smooth="yes"/>
      <point x="199" y="-14"/>
      <point x="200" y="23"/>
      <point x="200" y="44" type="curve" smooth="yes"/>
      <point x="200" y="135"/>
      <point x="200" y="241"/>
      <point x="200" y="318" type="curve" smooth="yes"/>
      <point x="200" y="367"/>
      <point x="200" y="403"/>
      <point x="200" y="429" type="curve" smooth="yes"/>
      <point x="200" y="466"/>
      <point x="68" y="806"/>
      <point x="224" y="593" type="curve" smooth="yes"/>
      <point x="243" y="567"/>
      <point x="265" y="537"/>
      <point x="287" y="504" type="curve" smooth="yes"/>
      <point x="345" y="421"/>
      <point x="415" y="318"/>
      <point x="476" y="232" type="curve" smooth="yes"/>
      <point x="498" y="200"/>
      <point x="518" y="171"/>
      <point x="536" y="146" type="curve" smooth="yes"/>
      <point x="540" y="140"/>
      <point x="638" y="13"/>
      <point x="638" y="21" type="curve" smooth="yes"/>
      <point x="638" y="48"/>
      <point x="638" y="78"/>
      <point x="638" y="106" type="curve" smooth="yes"/>
      <point x="638" y="218"/>
      <point x="638" y="334"/>
      <point x="638" y="396" type="curve" smooth="yes"/>
      <point x="638" y="433"/>
      <point x="634" y="474"/>
      <point x="616" y="530" type="curve" smooth="yes"/>
      <point x="595" y="594"/>
      <point x="681" y="622"/>
      <point x="702" y="558" type="curve" smooth="yes"/>
      <point x="724" y="492"/>
      <point x="728" y="441"/>
      <point x="728" y="396" type="curve" smooth="yes"/>
      <point x="728" y="303"/>
      <point x="728" y="181"/>
      <point x="728" y="106" type="curve" smooth="yes"/>
      <point x="728" y="65"/>
      <point x="728" y="39"/>
      <point x="728" y="21" type="curve" smooth="yes"/>
      <point x="728" y="-155"/>
      <point x="559" y="-42"/>
      <point x="462" y="94" type="curve" smooth="yes"/>
      <point x="444" y="119"/>
      <point x="424" y="148"/>
      <point x="402" y="180" type="curve" smooth="yes"/>
      <point x="343" y="264"/>
      <point x="273" y="368"/>
      <point x="213" y="454" type="curve" smooth="yes"/>
      <point x="191" y="485"/>
      <point x="169" y="515"/>
      <point x="152" y="539" type="curve" smooth="yes"/>
      <point x="135" y="562"/>
      <point x="290" y="770"/>
      <point x="290" y="429" type="curve" smooth="yes"/>
      <point x="290" y="390"/>
      <point x="290" y="351"/>
      <point x="290" y="318" type="curve" smooth="yes"/>
      <point x="290" y="203"/>
      <point x="290" y="105"/>
      <point x="290" y="44" type="curve" smooth="yes"/>
      <point x="290" y="-14"/>
      <point x="282" y="-57"/>
      <point x="254" y="-87" type="curve" smooth="yes"/>
      <point x="207" y="-136"/>
      <point x="142" y="-74"/>
    </contour>
  </outline>
</glyph>
<glyph name="O" format="2">
  <advance width="732"/>
  <unicode hex="004F"/>
  <outline>
    <contour>
      <point x="-3005.875327216577" y="-88.24921893359044" type="curve" smooth="yes"/>
      <point x="-3037.886439222282" y="-104.25477518022197"/>
      <point x="-3073.4816584221458" y="-103.20679840219437"/>
      <point x="-3116.812974354421" y="-76.18296728236628" type="curve" smooth="yes"/>
      <point x="-3193.797537808296" y="-28.17108957104083"/>
      <point x="-3258.999940570619" y="89.04851182578514"/>
      <point x="-3258.9999445900917" y="220.99999907091686" type="curve" smooth="yes"/>
      <point x="-3258.9999508042565" y="424.9990114422265"/>
      <point x="-3122.808042447136" y="569.9999958115105"/>
      <point x="-2935.9999580846434" y="569.9999958115105" type="curve" smooth="yes"/>
      <point x="-2750.1496640320283" y="569.9999958115105"/>
      <point x="-2616.9999591830533" y="424.05865642551686"/>
      <point x="-2616.9999529975325" y="221.0000018124737" type="curve" smooth="yes"/>
      <point x="-2616.9999489993847" y="89.74854945041687"/>
      <point x="-2658.018365708561" y="-24.82068180507294"/>
      <point x="-2756.875313936255" y="-74.24921039718173" type="curve" smooth="yes"/>
      <point x="-2800.9311563373763" y="-96.27715587611357"/>
      <point x="-2850.211523357977" y="-104.32010403541356"/>
      <point x="-2914.3432947045885" y="-92.21976988861843" type="curve" smooth="yes"/>
      <point x="-2980.6729563457156" y="-79.7047394622227"/>
      <point x="-2963.9862491105214" y="8.73480939261325"/>
      <point x="-2897.6565874693943" y="-3.7802210337824818" type="curve" smooth="yes"/>
      <point x="-2855.903429099728" y="-11.658175397874945"/>
      <point x="-2825.807245060282" y="-8.092132778211786"/>
      <point x="-2797.124573020221" y="6.2492190483163625" type="curve" smooth="yes"/>
      <point x="-2729.3628739604364" y="40.130105920444876"/>
      <point x="-2706.999950256994" y="131.03342033704456"/>
      <point x="-2706.9999529975325" y="220.9999990709168" type="curve" smooth="yes"/>
      <point x="-2706.9999575906872" y="371.7843542185164"/>
      <point x="-2797.9939381190443" y="479.99999581151053"/>
      <point x="-2935.9999580846434" y="479.99999581151053" type="curve" smooth="yes"/>
      <point x="-3075.0663623864093" y="479.99999581151053"/>
      <point x="-3168.9999492161314" y="372.86392798249994"/>
      <point x="-3168.9999445900917" y="221.00000181247364" type="curve" smooth="yes"/>
      <point x="-3168.999941732781" y="127.20003127693629"/>
      <point x="-3123.912695782813" y="34.31304013194142"/>
      <point x="-3069.1869027324506" y="0.18297605534796446" type="curve" smooth="yes"/>
      <point x="-3061.879875212244" y="-4.37409481696595"/>
      <point x="-3051.522635143802" y="-10.449813950821166"/>
      <point x="-3046.1245513019976" y="-7.75077198881047" type="curve" smooth="yes"/>
      <point x="-2985.7507160934124" y="22.43614607525535"/>
      <point x="-2945.5014920079916" y="-58.06230086952462"/>
    </contour>
  </outline>
</glyph>
<glyph name="S" format="2">
  <advance width="521"/>
  <unicode hex="0053"/>
  <outline>
    <contour>
      <point x="197" y="41" type="curve" smooth="yes"/>
      <point x="281" y="-16"/>
      <point x="335" y="-34"/>
      <point x="381" y="-37" type="curve" smooth="yes"/>
      <point x="456" y="-41"/>
      <point x="504" y="-8"/>
      <point x="504" y="63" type="curve" smooth="yes"/>
      <point x="504" y="137"/>
      <point x="429" y="160"/>
      <point x="367" y="187" type="curve" smooth="yes"/>
      <point x="265" y="230"/>
      <point x="183" y="268"/>
      <point x="183" y="384" type="curve" smooth="yes"/>
      <point x="183" y="497"/>
      <point x="272" y="559"/>
      <point x="388" y="568" type="curve" smooth="yes"/>
      <point x="462" y="574"/>
      <point x="469" y="560"/>
      <point x="479" y="565" type="curve" smooth="yes"/>
      <point x="538" y="598"/>
      <point x="582" y="519"/>
      <point x="523" y="487" type="curve" smooth="yes"/>
      <point x="490" y="469"/>
      <point x="418" y="480"/>
      <point x="394" y="478" type="curve" smooth="yes"/>
      <point x="329" y="473"/>
      <point x="273" y="448"/>
      <point x="273" y="384" type="curve" smooth="yes"/>
      <point x="273" y="316"/>
      <point x="343" y="295"/>
      <point x="403" y="269" type="curve" smooth="yes"/>
      <point x="505" y="225"/>
      <point x="594" y="185"/>
      <point x="594" y="63" type="curve" smooth="yes"/>
      <point x="594" y="-58"/>
      <point x="504" y="-135"/>
      <point x="375" y="-127" type="curve" smooth="yes"/>
      <point x="319" y="-124"/>
      <point x="251" y="-104"/>
      <point x="147" y="-33" type="curve" smooth="yes"/>
      <point x="91" y="5"/>
      <point x="142" y="79"/>
    </contour>
  </outline>
</glyph>
<glyph name="V" format="2">
  <advance width="620"/>
  <unicode hex="0056"/>
  <outline>
    <contour>
      <point x="693" y="544" type="curve" smooth="yes"/>
      <point x="702" y="430"/>
      <point x="687" y="358"/>
      <point x="643" y="307" type="curve" smooth="yes"/>
      <point x="593" y="251"/>
      <point x="512" y="180"/>
      <point x="450" y="95" type="curve" smooth="yes"/>
      <point x="395" y="21"/>
      <point x="425" y="-274"/>
      <point x="324" y="10" type="curve" smooth="yes"/>
      <point x="282" y="129"/>
      <point x="244" y="234"/>
      <point x="209" y="332" type="curve" smooth="yes"/>
      <point x="192" y="383"/>
      <point x="173" y="448"/>
      <point x="133" y="518" type="curve" smooth="yes"/>
      <point x="99" y="576"/>
      <point x="177" y="621"/>
      <point x="211" y="562" type="curve" smooth="yes"/>
      <point x="255" y="486"/>
      <point x="274" y="419"/>
      <point x="295" y="362" type="curve" smooth="yes"/>
      <point x="330" y="261"/>
      <point x="368" y="155"/>
      <point x="408" y="40" type="curve" smooth="yes"/>
      <point x="434" y="-32"/>
      <point x="163" y="-141"/>
      <point x="378" y="149" type="curve" smooth="yes"/>
      <point x="444" y="238"/>
      <point x="529" y="314"/>
      <point x="575" y="365" type="curve" smooth="yes"/>
      <point x="605" y="400"/>
      <point x="610" y="459"/>
      <point x="603" y="536" type="curve" smooth="yes"/>
      <point x="598" y="604"/>
      <point x="687" y="611"/>
    </contour>
  </outline>
</glyph>
<glyph name="W" format="2">
  <advance width="888"/>
  <unicode hex="0057"/>
  <outline>
    <contour>
      <point x="220" y="561" type="curve" smooth="yes"/>
      <point x="254" y="496"/>
      <point x="281" y="413"/>
      <point x="295" y="368" type="curve" smooth="yes"/>
      <point x="324" y="269"/>
      <point x="348" y="187"/>
      <point x="381" y="82" type="curve" smooth="yes"/>
      <point x="387" y="62"/>
      <point x="394" y="40"/>
      <point x="401" y="19" type="curve" smooth="yes"/>
      <point x="463" y="-187"/>
      <point x="210" y="-75"/>
      <point x="269" y="137" type="curve" smooth="yes"/>
      <point x="276" y="161"/>
      <point x="282" y="186"/>
      <point x="287" y="209" type="curve" smooth="yes"/>
      <point x="311" y="300"/>
      <point x="332" y="388"/>
      <point x="351" y="465" type="curve" smooth="yes"/>
      <point x="358" y="492"/>
      <point x="365" y="518"/>
      <point x="371" y="544" type="curve" smooth="yes"/>
      <point x="419" y="739"/>
      <point x="586" y="613"/>
      <point x="635" y="418" type="curve" smooth="yes"/>
      <point x="640" y="395"/>
      <point x="646" y="372"/>
      <point x="652" y="348" type="curve" smooth="yes"/>
      <point x="672" y="266"/>
      <point x="696" y="176"/>
      <point x="718" y="89" type="curve" smooth="yes"/>
      <point x="725" y="60"/>
      <point x="731" y="37"/>
      <point x="736" y="17" type="curve" smooth="yes"/>
      <point x="788" y="-191"/>
      <point x="545" y="-75"/>
      <point x="609" y="140" type="curve" smooth="yes"/>
      <point x="620" y="175"/>
      <point x="633" y="203"/>
      <point x="653" y="223" type="curve" smooth="yes"/>
      <point x="735" y="303"/>
      <point x="807" y="272"/>
      <point x="840" y="386" type="curve" smooth="yes"/>
      <point x="851" y="424"/>
      <point x="869" y="481"/>
      <point x="863" y="535" type="curve" smooth="yes"/>
      <point x="856" y="602"/>
      <point x="945" y="612"/>
      <point x="953" y="545" type="curve" smooth="yes"/>
      <point x="961" y="475"/>
      <point x="941" y="410"/>
      <point x="926" y="360" type="curve" smooth="yes"/>
      <point x="881" y="206"/>
      <point x="777" y="218"/>
      <point x="717" y="159" type="curve" smooth="yes"/>
      <point x="707" y="150"/>
      <point x="700" y="130"/>
      <point x="695" y="114" type="curve" smooth="yes"/>
      <point x="692" y="105"/>
      <point x="651" y="-14"/>
      <point x="648" y="-5" type="curve" smooth="yes"/>
      <point x="641" y="24"/>
      <point x="635" y="47"/>
      <point x="630" y="67" type="curve" smooth="yes"/>
      <point x="608" y="153"/>
      <point x="584" y="244"/>
      <point x="564" y="326" type="curve" smooth="yes"/>
      <point x="558" y="350"/>
      <point x="552" y="375"/>
      <point x="547" y="396" type="curve" smooth="yes"/>
      <point x="532" y="457"/>
      <point x="473" y="583"/>
      <point x="459" y="524" type="curve" smooth="yes"/>
      <point x="453" y="496"/>
      <point x="446" y="472"/>
      <point x="439" y="443" type="curve" smooth="yes"/>
      <point x="419" y="364"/>
      <point x="398" y="276"/>
      <point x="375" y="187" type="curve" smooth="yes"/>
      <point x="368" y="162"/>
      <point x="362" y="137"/>
      <point x="355" y="113" type="curve" smooth="yes"/>
      <point x="353" y="104"/>
      <point x="318" y="-17"/>
      <point x="315" y="-9" type="curve" smooth="yes"/>
      <point x="308" y="14"/>
      <point x="301" y="36"/>
      <point x="295" y="56" type="curve" smooth="yes"/>
      <point x="262" y="161"/>
      <point x="238" y="243"/>
      <point x="209" y="342" type="curve" smooth="yes"/>
      <point x="197" y="383"/>
      <point x="172" y="460"/>
      <point x="140" y="519" type="curve" smooth="yes"/>
      <point x="109" y="578"/>
      <point x="188" y="621"/>
    </contour>
  </outline>
</glyph>
<glyph name="bracketright" format="2">
  <advance width="430"/>
  <unicode hex="005D"/>
  <outline>
    <contour>
      <point x="85" y="-68" type="curve" smooth="yes"/>
      <point x="272" y="-68" type="line"/>
      <point x="227" y="-113" type="line"/>
      <point x="227" y="723" type="line"/>
      <point x="272" y="678" type="line"/>
      <point x="85" y="678" type="line" smooth="yes"/>
      <point x="17" y="678"/>
      <point x="18" y="768"/>
      <point x="85" y="768" type="curve" smooth="yes"/>
      <point x="272" y="768" type="line" smooth="yes"/>
      <point x="297" y="768"/>
      <point x="317" y="748"/>
      <point x="317" y="723" type="curve" smooth="yes"/>
      <point x="317" y="-113" type="line" smooth="yes"/>
      <point x="317" y="-138"/>
      <point x="297" y="-158"/>
      <point x="272" y="-158" type="curve" smooth="yes"/>
      <point x="85" y="-158" type="line" smooth="yes"/>
      <point x="18" y="-158"/>
      <point x="18" y="-68"/>
    </contour>
  </outline>
</glyph>
<glyph name="grave" format="2">
  <advance width="408"/>
  <unicode hex="0060"/>
  <outline>
    <contour>
      <point x="332" y="455" type="curve" smooth="yes"/>
      <point x="302" y="489"/>
      <point x="271" y="525"/>
      <point x="222" y="580" type="curve" smooth="yes"/>
      <point x="176" y="630"/>
      <point x="243" y="690"/>
      <point x="288" y="640" type="curve" smooth="yes"/>
      <point x="339" y="585"/>
      <point x="370" y="549"/>
      <point x="400" y="513" type="curve" smooth="yes"/>
      <point x="444" y="462"/>
      <point x="376" y="403"/>
    </contour>
  </outline>
</glyph>
<glyph name="f" format="2">
  <advance width="364"/>
  <unicode hex="0066"/>
  <outline>
    <contour>
      <point x="419" y="576" type="curve" smooth="yes"/>
      <point x="398" y="565"/>
      <point x="328" y="532"/>
      <point x="328" y="464" type="curve" smooth="yes"/>
      <point x="328" y="293"/>
      <point x="328" y="141"/>
      <point x="328" y="75" type="curve" smooth="yes"/>
      <point x="328" y="1"/>
      <point x="322" y="-56"/>
      <point x="293" y="-87" type="curve" smooth="yes"/>
      <point x="248" y="-137"/>
      <point x="181" y="-77"/>
      <point x="227" y="-27" type="curve" smooth="yes"/>
      <point x="236" y="-16"/>
      <point x="238" y="51"/>
      <point x="238" y="75" type="curve" smooth="yes"/>
      <point x="238" y="174"/>
      <point x="238" y="350"/>
      <point x="238" y="464" type="curve" smooth="yes"/>
      <point x="238" y="583"/>
      <point x="341" y="637"/>
      <point x="377" y="656" type="curve" smooth="yes"/>
      <point x="437" y="687"/>
      <point x="479" y="607"/>
    </contour>
    <contour>
      <point x="389" y="328" type="curve" smooth="yes"/>
      <point x="350" y="328"/>
      <point x="308" y="337"/>
      <point x="260" y="356" type="curve" smooth="yes"/>
      <point x="256" y="358"/>
      <point x="208" y="381"/>
      <point x="207" y="379" type="curve" smooth="yes"/>
      <point x="194" y="352"/>
      <point x="180" y="328"/>
      <point x="137" y="328" type="curve" smooth="yes"/>
      <point x="70" y="328"/>
      <point x="70" y="418"/>
      <point x="137" y="418" type="curve" smooth="yes"/>
      <point x="139" y="418"/>
      <point x="125" y="416"/>
      <point x="125" y="417" type="curve" smooth="yes"/>
      <point x="145" y="459"/>
      <point x="191" y="481"/>
      <point x="294" y="440" type="curve" smooth="yes"/>
      <point x="329" y="425"/>
      <point x="360" y="418"/>
      <point x="389" y="418" type="curve" smooth="yes"/>
      <point x="457" y="418"/>
      <point x="457" y="328"/>
    </contour>
  </outline>
</glyph>
<glyph name="r" format="2">
  <advance width="389"/>
  <unicode hex="0072"/>
  <outline>
    <contour>
      <point x="422" y="356" type="curve" smooth="yes"/>
      <point x="361" y="306"/>
      <point x="275" y="242"/>
      <point x="275" y="142" type="curve" smooth="yes"/>
      <point x="275" y="113"/>
      <point x="281" y="47"/>
      <point x="281" y="9" type="curve" smooth="yes"/>
      <point x="281" y="-178"/>
      <point x="92" y="-82"/>
      <point x="72" y="120" type="curve" smooth="yes"/>
      <point x="67" y="174"/>
      <point x="67" y="234"/>
      <point x="72" y="274" type="curve" smooth="yes"/>
      <point x="78" y="320"/>
      <point x="101" y="355"/>
      <point x="73" y="434" type="curve" smooth="yes"/>
      <point x="51" y="498"/>
      <point x="137" y="527"/>
      <point x="159" y="464" type="curve" smooth="yes"/>
      <point x="195" y="358"/>
      <point x="170" y="323"/>
      <point x="162" y="262" type="curve" smooth="yes"/>
      <point x="157" y="228"/>
      <point x="157" y="174"/>
      <point x="162" y="128" type="curve" smooth="yes"/>
      <point x="163" y="118"/>
      <point x="191" y="0"/>
      <point x="191" y="9" type="curve" smooth="yes"/>
      <point x="191" y="43"/>
      <point x="185" y="109"/>
      <point x="185" y="142" type="curve" smooth="yes"/>
      <point x="185" y="278"/>
      <point x="282" y="358"/>
      <point x="366" y="426" type="curve" smooth="yes"/>
      <point x="418" y="468"/>
      <point x="475" y="398"/>
    </contour>
  </outline>
</glyph>
<glyph name="w" format="2">
  <advance width="725"/>
  <unicode hex="0077"/>
  <outline>
    <contour>
      <point x="232" y="353" type="curve" smooth="yes"/>
      <point x="247" y="311"/>
      <point x="261" y="268"/>
      <point x="276" y="226" type="curve" smooth="yes"/>
      <point x="294" y="176"/>
      <point x="310" y="124"/>
      <point x="330" y="68" type="curve" smooth="yes"/>
      <point x="339" y="43"/>
      <point x="343" y="33"/>
      <point x="351" y="11" type="curve" smooth="yes"/>
      <point x="423" y="-188"/>
      <point x="151" y="-62"/>
      <point x="213" y="132" type="curve" smooth="yes"/>
      <point x="220" y="152"/>
      <point x="223" y="162"/>
      <point x="230" y="184" type="curve" smooth="yes"/>
      <point x="246" y="234"/>
      <point x="261" y="283"/>
      <point x="276" y="334" type="curve" smooth="yes"/>
      <point x="286" y="367"/>
      <point x="291" y="366"/>
      <point x="312" y="398" type="curve" smooth="yes"/>
      <point x="387" y="510"/>
      <point x="472" y="454"/>
      <point x="537" y="293" type="curve" smooth="yes"/>
      <point x="549" y="264"/>
      <point x="551" y="249"/>
      <point x="559" y="228" type="curve" smooth="yes"/>
      <point x="577" y="173"/>
      <point x="591" y="123"/>
      <point x="605" y="76" type="curve" smooth="yes"/>
      <point x="612" y="53"/>
      <point x="617" y="49"/>
      <point x="631" y="11" type="curve" smooth="yes"/>
      <point x="697" y="-171"/>
      <point x="425" y="-67"/>
      <point x="495" y="129" type="curve" smooth="yes"/>
      <point x="502" y="152"/>
      <point x="505" y="161"/>
      <point x="515" y="190" type="curve" smooth="yes"/>
      <point x="539" y="257"/>
      <point x="564" y="298"/>
      <point x="643" y="326" type="curve" smooth="yes"/>
      <point x="656" y="331"/>
      <point x="677" y="385"/>
      <point x="682" y="402" type="curve" smooth="yes"/>
      <point x="704" y="466"/>
      <point x="789" y="438"/>
      <point x="768" y="374" type="curve" smooth="yes"/>
      <point x="747" y="311"/>
      <point x="720" y="258"/>
      <point x="673" y="242" type="curve" smooth="yes"/>
      <point x="623" y="224"/>
      <point x="615" y="203"/>
      <point x="601" y="160" type="curve" smooth="yes"/>
      <point x="591" y="132"/>
      <point x="588" y="122"/>
      <point x="579" y="99" type="curve" smooth="yes"/>
      <point x="577" y="91"/>
      <point x="549" y="-28"/>
      <point x="547" y="-21" type="curve" smooth="yes"/>
      <point x="535" y="11"/>
      <point x="528" y="21"/>
      <point x="519" y="50" type="curve" smooth="yes"/>
      <point x="505" y="97"/>
      <point x="491" y="145"/>
      <point x="473" y="198" type="curve" smooth="yes"/>
      <point x="465" y="223"/>
      <point x="463" y="234"/>
      <point x="453" y="259" type="curve" smooth="yes"/>
      <point x="436" y="302"/>
      <point x="407" y="378"/>
      <point x="388" y="348" type="curve" smooth="yes"/>
      <point x="380" y="336"/>
      <point x="366" y="321"/>
      <point x="362" y="308" type="curve" smooth="yes"/>
      <point x="347" y="257"/>
      <point x="332" y="208"/>
      <point x="316" y="156" type="curve" smooth="yes"/>
      <point x="309" y="134"/>
      <point x="306" y="124"/>
      <point x="299" y="104" type="curve" smooth="yes"/>
      <point x="296" y="96"/>
      <point x="269" y="-27"/>
      <point x="265" y="-17" type="curve" smooth="yes"/>
      <point x="259" y="3"/>
      <point x="255" y="11"/>
      <point x="246" y="38" type="curve" smooth="yes"/>
      <point x="226" y="94"/>
      <point x="208" y="146"/>
      <point x="192" y="196" type="curve" smooth="yes"/>
      <point x="177" y="238"/>
      <point x="163" y="281"/>
      <point x="148" y="323" type="curve" smooth="yes"/>
      <point x="125" y="386"/>
      <point x="210" y="417"/>
    </contour>
  </outline>
</glyph>
<glyph name="x" format="2">
  <advance width="499"/>
  <unicode hex="0078"/>
  <outline>
    <contour>
      <point x="225" y="387" type="curve" smooth="yes"/>
      <point x="260" y="346"/>
      <point x="291" y="308"/>
      <point x="307" y="286" type="curve" smooth="yes"/>
      <point x="331" y="252"/>
      <point x="416" y="143"/>
      <point x="501" y="36" type="curve" smooth="yes"/>
      <point x="527" y="2"/>
      <point x="544" y="-21"/>
      <point x="554" y="-36" type="curve" smooth="yes"/>
      <point x="590" y="-92"/>
      <point x="515" y="-141"/>
      <point x="478" y="-84" type="curve" smooth="yes"/>
      <point x="470" y="-71"/>
      <point x="453" y="-48"/>
      <point x="431" y="-20" type="curve" smooth="yes"/>
      <point x="344" y="89"/>
      <point x="257" y="200"/>
      <point x="233" y="234" type="curve" smooth="yes"/>
      <point x="219" y="254"/>
      <point x="188" y="292"/>
      <point x="157" y="329" type="curve" smooth="yes"/>
      <point x="113" y="380"/>
      <point x="182" y="439"/>
    </contour>
    <contour>
      <point x="574" y="324" type="curve" smooth="yes"/>
      <point x="562" y="286"/>
      <point x="549" y="246"/>
      <point x="537" y="209" type="curve" smooth="yes"/>
      <point x="494" y="78"/>
      <point x="416" y="-19"/>
      <point x="323" y="-59" type="curve" smooth="yes"/>
      <point x="291" y="-73"/>
      <point x="255" y="-100"/>
      <point x="226" y="-118" type="curve" smooth="yes"/>
      <point x="168" y="-154"/>
      <point x="121" y="-77"/>
      <point x="178" y="-42" type="curve" smooth="yes"/>
      <point x="217" y="-18"/>
      <point x="245" y="5"/>
      <point x="287" y="23" type="curve" smooth="yes"/>
      <point x="358" y="55"/>
      <point x="418" y="136"/>
      <point x="451" y="237" type="curve" smooth="yes"/>
      <point x="463" y="274"/>
      <point x="476" y="314"/>
      <point x="488" y="352" type="curve" smooth="yes"/>
      <point x="508" y="416"/>
      <point x="594" y="389"/>
    </contour>
    <contour>
      <point x="126" y="486" type="curve" smooth="yes"/>
      <point x="149" y="457"/>
      <point x="172" y="427"/>
      <point x="195" y="398" type="curve" smooth="yes"/>
      <point x="210" y="379"/>
      <point x="224" y="360"/>
      <point x="238" y="343" type="curve" smooth="yes"/>
      <point x="291" y="275"/>
      <point x="289" y="230"/>
      <point x="237" y="165" type="curve" smooth="yes"/>
      <point x="221" y="145"/>
      <point x="205" y="124"/>
      <point x="189" y="104" type="curve" smooth="yes"/>
      <point x="168" y="79"/>
      <point x="141" y="42"/>
      <point x="118" y="12" type="curve" smooth="yes"/>
      <point x="76" y="-41"/>
      <point x="5" y="14"/>
      <point x="46" y="68" type="curve" smooth="yes"/>
      <point x="71" y="100"/>
      <point x="98" y="135"/>
      <point x="119" y="160" type="curve" smooth="yes"/>
      <point x="135" y="180"/>
      <point x="151" y="201"/>
      <point x="167" y="221" type="curve" smooth="yes"/>
      <point x="192" y="253"/>
      <point x="193" y="254"/>
      <point x="166" y="287" type="curve" smooth="yes"/>
      <point x="152" y="306"/>
      <point x="138" y="325"/>
      <point x="125" y="342" type="curve" smooth="yes"/>
      <point x="102" y="371"/>
      <point x="79" y="401"/>
      <point x="56" y="430" type="curve" smooth="yes"/>
      <point x="14" y="483"/>
      <point x="84" y="539"/>
    </contour>
  </outline>
</glyph>
<glyph name="y" format="2">
  <advance width="488"/>
  <unicode hex="0079"/>
  <outline>
    <contour>
      <point x="122" y="-106" type="curve" smooth="yes"/>
      <point x="136" y="-76"/>
      <point x="151" y="-42"/>
      <point x="165" y="-11" type="curve" smooth="yes"/>
      <point x="173" y="7"/>
      <point x="181" y="26"/>
      <point x="188" y="41" type="curve" smooth="yes"/>
      <point x="209" y="88"/>
      <point x="218" y="92"/>
      <point x="223" y="131" type="curve" smooth="yes"/>
      <point x="225" y="140"/>
      <point x="157" y="290"/>
      <point x="143" y="319" type="curve" smooth="yes"/>
      <point x="115" y="380"/>
      <point x="196" y="418"/>
      <point x="225" y="357" type="curve" smooth="yes"/>
      <point x="283" y="233"/>
      <point x="318" y="153"/>
      <point x="313" y="117" type="curve" smooth="yes"/>
      <point x="304" y="63"/>
      <point x="300" y="69"/>
      <point x="270" y="3" type="curve" smooth="yes"/>
      <point x="263" y="-12"/>
      <point x="255" y="-29"/>
      <point x="247" y="-49" type="curve" smooth="yes"/>
      <point x="233" y="-80"/>
      <point x="218" y="-114"/>
      <point x="204" y="-144" type="curve" smooth="yes"/>
      <point x="175" y="-205"/>
      <point x="94" y="-167"/>
    </contour>
    <contour>
      <point x="570" y="357" type="curve" smooth="yes"/>
      <point x="569" y="282"/>
      <point x="540" y="217"/>
      <point x="523" y="179" type="curve" smooth="yes"/>
      <point x="480" y="81"/>
      <point x="418" y="-54"/>
      <point x="390" y="-116" type="curve" smooth="yes"/>
      <point x="382" y="-135"/>
      <point x="373" y="-153"/>
      <point x="365" y="-171" type="curve" smooth="yes"/>
      <point x="351" y="-203"/>
      <point x="338" y="-234"/>
      <point x="324" y="-264" type="curve" smooth="yes"/>
      <point x="295" y="-325"/>
      <point x="214" y="-287"/>
      <point x="242" y="-226" type="curve" smooth="yes"/>
      <point x="256" y="-196"/>
      <point x="269" y="-165"/>
      <point x="283" y="-137" type="curve" smooth="yes"/>
      <point x="291" y="-117"/>
      <point x="300" y="-99"/>
      <point x="308" y="-80" type="curve" smooth="yes"/>
      <point x="335" y="-19"/>
      <point x="397" y="114"/>
      <point x="441" y="215" type="curve" smooth="yes"/>
      <point x="454" y="245"/>
      <point x="479" y="300"/>
      <point x="480" y="359" type="curve" smooth="yes"/>
      <point x="481" y="426"/>
      <point x="571" y="425"/>
    </contour>
  </outline>
</glyph>
<glyph name="braceleft" format="2">
  <advance width="466"/>
  <unicode hex="007B"/>
  <outline>
    <contour>
      <point x="487" y="554" type="curve" smooth="yes"/>
      <point x="448" y="567"/>
      <point x="411" y="570"/>
      <point x="383" y="562" type="curve" smooth="yes"/>
      <point x="353" y="554"/>
      <point x="336" y="534"/>
      <point x="336" y="499" type="curve" smooth="yes"/>
      <point x="336" y="461"/>
      <point x="396" y="318"/>
      <point x="311" y="282" type="curve" smooth="yes"/>
      <point x="272" y="265"/>
      <point x="213" y="259"/>
      <point x="126" y="259" type="curve" smooth="yes"/>
      <point x="121" y="259"/>
      <point x="241" y="229"/>
      <point x="246" y="229" type="curve" smooth="yes"/>
      <point x="352" y="229"/>
      <point x="394" y="170"/>
      <point x="394" y="100" type="curve" smooth="yes"/>
      <point x="394" y="20"/>
      <point x="336" y="-69"/>
      <point x="336" y="-130" type="curve" smooth="yes"/>
      <point x="336" y="-162"/>
      <point x="351" y="-183"/>
      <point x="378" y="-192" type="curve" smooth="yes"/>
      <point x="407" y="-202"/>
      <point x="445" y="-200"/>
      <point x="487" y="-185" type="curve" smooth="yes"/>
      <point x="550" y="-164"/>
      <point x="579" y="-249"/>
      <point x="515" y="-271" type="curve" smooth="yes"/>
      <point x="451" y="-292"/>
      <point x="395" y="-292"/>
      <point x="350" y="-278" type="curve" smooth="yes"/>
      <point x="287" y="-257"/>
      <point x="246" y="-203"/>
      <point x="246" y="-130" type="curve" smooth="yes"/>
      <point x="246" y="-46"/>
      <point x="304" y="41"/>
      <point x="304" y="100" type="curve" smooth="yes"/>
      <point x="304" y="129"/>
      <point x="290" y="139"/>
      <point x="246" y="139" type="curve" smooth="yes"/>
      <point x="105" y="139"/>
      <point x="-18" y="349"/>
      <point x="126" y="349" type="curve" smooth="yes"/>
      <point x="190" y="349"/>
      <point x="247" y="353"/>
      <point x="277" y="366" type="curve" smooth="yes"/>
      <point x="284" y="368"/>
      <point x="246" y="58"/>
      <point x="246" y="499" type="curve" smooth="yes"/>
      <point x="246" y="576"/>
      <point x="291" y="630"/>
      <point x="361" y="650" type="curve" smooth="yes"/>
      <point x="403" y="660"/>
      <point x="456" y="659"/>
      <point x="515" y="640" type="curve" smooth="yes"/>
      <point x="579" y="619"/>
      <point x="551" y="533"/>
    </contour>
  </outline>
</glyph>
<glyph name="braceright" format="2">
  <advance width="466"/>
  <unicode hex="007D"/>
  <outline>
    <contour>
      <point x="219" y="-185" type="curve" smooth="yes"/>
      <point x="261" y="-200"/>
      <point x="299" y="-202"/>
      <point x="328" y="-192" type="curve" smooth="yes"/>
      <point x="355" y="-183"/>
      <point x="370" y="-162"/>
      <point x="370" y="-130" type="curve" smooth="yes"/>
      <point x="370" y="-69"/>
      <point x="312" y="20"/>
      <point x="312" y="100" type="curve" smooth="yes"/>
      <point x="312" y="170"/>
      <point x="354" y="229"/>
      <point x="460" y="229" type="curve" smooth="yes"/>
      <point x="465" y="229"/>
      <point x="345" y="259"/>
      <point x="340" y="259" type="curve" smooth="yes"/>
      <point x="190" y="259"/>
      <point x="215" y="336"/>
      <point x="284" y="365" type="curve" smooth="yes"/>
      <point x="317" y="379"/>
      <point x="370" y="448"/>
      <point x="370" y="499" type="curve" smooth="yes"/>
      <point x="370" y="534"/>
      <point x="353" y="554"/>
      <point x="322" y="563" type="curve" smooth="yes"/>
      <point x="295" y="570"/>
      <point x="258" y="567"/>
      <point x="219" y="554" type="curve" smooth="yes"/>
      <point x="155" y="533"/>
      <point x="127" y="619"/>
      <point x="191" y="640" type="curve" smooth="yes"/>
      <point x="250" y="659"/>
      <point x="303" y="660"/>
      <point x="346" y="649" type="curve" smooth="yes"/>
      <point x="415" y="630"/>
      <point x="460" y="576"/>
      <point x="460" y="499" type="curve" smooth="yes"/>
      <point x="460" y="404"/>
      <point x="379" y="307"/>
      <point x="320" y="283" type="curve" smooth="yes"/>
      <point x="317" y="282"/>
      <point x="334" y="349"/>
      <point x="340" y="349" type="curve" smooth="yes"/>
      <point x="483" y="349"/>
      <point x="601" y="139"/>
      <point x="460" y="139" type="curve" smooth="yes"/>
      <point x="416" y="139"/>
      <point x="402" y="129"/>
      <point x="402" y="100" type="curve" smooth="yes"/>
      <point x="402" y="41"/>
      <point x="460" y="-46"/>
      <point x="460" y="-130" type="curve" smooth="yes"/>
      <point x="460" y="-203"/>
      <point x="419" y="-257"/>
      <point x="356" y="-278" type="curve" smooth="yes"/>
      <point x="311" y="-292"/>
      <point x="255" y="-292"/>
      <point x="191" y="-271" type="curve" smooth="yes"/>
      <point x="127" y="-249"/>
      <point x="156" y="-164"/>
    </contour>
  </outline>
</glyph>
<glyph name="exclamdown" format="2">
  <advance width="261"/>
  <unicode hex="00A1"/>
  <outline>
    <contour>
      <point x="297" y="175" type="curve" smooth="yes"/>
      <point x="297" y="-180" type="line" smooth="yes"/>
      <point x="297" y="-247"/>
      <point x="207" y="-247"/>
      <point x="207" y="-180" type="curve" smooth="yes"/>
      <point x="207" y="175" type="line" smooth="yes"/>
      <point x="207" y="243"/>
      <point x="297" y="243"/>
    </contour>
    <contour>
      <point x="253" y="331" type="curve" smooth="yes"/>
      <point x="169" y="344"/>
      <point x="169" y="452"/>
      <point x="253" y="465" type="curve" smooth="yes"/>
      <point x="320" y="474"/>
      <point x="333" y="385"/>
      <point x="267" y="375" type="curve" smooth="yes"/>
      <point x="264" y="375"/>
      <point x="264" y="421"/>
      <point x="267" y="421" type="curve" smooth="yes"/>
      <point x="333" y="411"/>
      <point x="320" y="322"/>
    </contour>
  </outline>
</glyph>
<glyph name="cent" format="2">
  <advance width="475"/>
  <unicode hex="00A2"/>
  <outline>
    <contour>
      <point x="397" y="114" type="curve" smooth="yes"/>
      <point x="239" y="40"/>
      <point x="47" y="129"/>
      <point x="47" y="314" type="curve" smooth="yes"/>
      <point x="47" y="499"/>
      <point x="239" y="588"/>
      <point x="397" y="514" type="curve" smooth="yes"/>
      <point x="458" y="485"/>
      <point x="420" y="403"/>
      <point x="359" y="432" type="curve" smooth="yes"/>
      <point x="259" y="480"/>
      <point x="137" y="431"/>
      <point x="137" y="314" type="curve" smooth="yes"/>
      <point x="137" y="197"/>
      <point x="259" y="148"/>
      <point x="359" y="196" type="curve" smooth="yes"/>
      <point x="420" y="225"/>
      <point x="458" y="143"/>
    </contour>
    <contour>
      <point x="197" y="-7" type="curve" smooth="yes"/>
      <point x="207" y="137" type="line" smooth="yes"/>
      <point x="212" y="204"/>
      <point x="302" y="198"/>
      <point x="297" y="131" type="curve" smooth="yes"/>
      <point x="287" y="-13" type="line" smooth="yes"/>
      <point x="282" y="-80"/>
      <point x="192" y="-74"/>
    </contour>
    <contour>
      <point x="227" y="498" type="curve" smooth="yes"/>
      <point x="235" y="642" type="line" smooth="yes"/>
      <point x="239" y="710"/>
      <point x="329" y="705"/>
      <point x="325" y="638" type="curve" smooth="yes"/>
      <point x="317" y="494" type="line" smooth="yes"/>
      <point x="313" y="426"/>
      <point x="223" y="431"/>
    </contour>
  </outline>
</glyph>
<glyph name="brokenbar" format="2">
  <advance width="315"/>
  <unicode hex="00A6"/>
  <outline>
    <contour>
      <point x="281" y="165" type="curve" smooth="yes"/>
      <point x="323" y="43"/>
      <point x="323" y="-87"/>
      <point x="323" y="-240" type="curve" smooth="yes"/>
      <point x="323" y="-307"/>
      <point x="233" y="-307"/>
      <point x="233" y="-240" type="curve" smooth="yes"/>
      <point x="233" y="-101"/>
      <point x="233" y="25"/>
      <point x="195" y="135" type="curve" smooth="yes"/>
      <point x="173" y="199"/>
      <point x="259" y="228"/>
    </contour>
    <contour>
      <point x="323" y="610" type="curve" smooth="yes"/>
      <point x="323" y="431"/>
      <point x="321" y="327"/>
      <point x="272" y="270" type="curve" smooth="yes"/>
      <point x="228" y="220"/>
      <point x="160" y="279"/>
      <point x="204" y="330" type="curve" smooth="yes"/>
      <point x="234" y="364"/>
      <point x="233" y="500"/>
      <point x="233" y="610" type="curve" smooth="yes"/>
      <point x="233" y="678"/>
      <point x="323" y="678"/>
    </contour>
  </outline>
</glyph>
<glyph name="dieresis" format="2">
  <advance width="577"/>
  <unicode hex="00A8"/>
  <outline>
    <contour>
      <point x="303" y="471" type="curve" smooth="yes"/>
      <point x="219" y="484"/>
      <point x="219" y="592"/>
      <point x="303" y="605" type="curve" smooth="yes"/>
      <point x="370" y="614"/>
      <point x="383" y="525"/>
      <point x="317" y="515" type="curve" smooth="yes"/>
      <point x="314" y="515"/>
      <point x="314" y="561"/>
      <point x="317" y="561" type="curve" smooth="yes"/>
      <point x="383" y="551"/>
      <point x="370" y="462"/>
    </contour>
    <contour>
      <point x="523" y="471" type="curve" smooth="yes"/>
      <point x="439" y="484"/>
      <point x="439" y="592"/>
      <point x="523" y="605" type="curve" smooth="yes"/>
      <point x="590" y="614"/>
      <point x="603" y="525"/>
      <point x="537" y="515" type="curve" smooth="yes"/>
      <point x="534" y="515"/>
      <point x="534" y="561"/>
      <point x="537" y="561" type="curve" smooth="yes"/>
      <point x="603" y="551"/>
      <point x="590" y="462"/>
    </contour>
  </outline>
</glyph>
<glyph name="logicalnot" format="2">
  <advance width="490"/>
  <unicode hex="00AC"/>
  <outline>
    <contour>
      <point x="183" y="341" type="curve" smooth="yes"/>
      <point x="276" y="313"/>
      <point x="341" y="313"/>
      <point x="406" y="313" type="curve" smooth="yes"/>
      <point x="558" y="313"/>
      <point x="505" y="357"/>
      <point x="505" y="235" type="curve" smooth="yes"/>
      <point x="505" y="190"/>
      <point x="505" y="154"/>
      <point x="505" y="124" type="curve" smooth="yes"/>
      <point x="505" y="56"/>
      <point x="415" y="57"/>
      <point x="415" y="124" type="curve" smooth="yes"/>
      <point x="415" y="169"/>
      <point x="415" y="205"/>
      <point x="415" y="235" type="curve" smooth="yes"/>
      <point x="415" y="241"/>
      <point x="414" y="223"/>
      <point x="406" y="223" type="curve" smooth="yes"/>
      <point x="333" y="223"/>
      <point x="260" y="223"/>
      <point x="157" y="255" type="curve" smooth="yes"/>
      <point x="92" y="275"/>
      <point x="119" y="361"/>
    </contour>
  </outline>
</glyph>
<glyph name="macron" format="2">
  <advance width="490"/>
  <unicode hex="00AF"/>
  <outline>
    <contour>
      <point x="503" y="544" type="curve" smooth="yes"/>
      <point x="483" y="482"/>
      <point x="337" y="455"/>
      <point x="192" y="517" type="curve" smooth="yes"/>
      <point x="130" y="543"/>
      <point x="166" y="626"/>
      <point x="228" y="599" type="curve" smooth="yes"/>
      <point x="256" y="587"/>
      <point x="413" y="560"/>
      <point x="417" y="572" type="curve" smooth="yes"/>
      <point x="438" y="636"/>
      <point x="524" y="608"/>
    </contour>
  </outline>
</glyph>
<glyph name="acute" format="2">
  <advance width="408"/>
  <unicode hex="00B4"/>
  <outline>
    <contour>
      <point x="407" y="561" type="curve" smooth="yes"/>
      <point x="372" y="520"/>
      <point x="324" y="489"/>
      <point x="265" y="471" type="curve" smooth="yes"/>
      <point x="200" y="452"/>
      <point x="174" y="538"/>
      <point x="239" y="557" type="curve" smooth="yes"/>
      <point x="280" y="569"/>
      <point x="314" y="590"/>
      <point x="339" y="619" type="curve" smooth="yes"/>
      <point x="383" y="671"/>
      <point x="451" y="612"/>
    </contour>
  </outline>
</glyph>
<glyph name="guillemetright" format="2">
  <advance width="637"/>
  <unicode hex="00BB"/>
  <outline>
    <contour>
      <point x="328" y="97" type="curve" smooth="yes"/>
      <point x="525" y="293" type="line"/>
      <point x="525" y="229" type="line"/>
      <point x="328" y="427" type="line" smooth="yes"/>
      <point x="280" y="475"/>
      <point x="344" y="539"/>
      <point x="392" y="491" type="curve" smooth="yes"/>
      <point x="589" y="293" type="line" smooth="yes"/>
      <point x="606" y="275"/>
      <point x="606" y="247"/>
      <point x="589" y="229" type="curve" smooth="yes"/>
      <point x="392" y="33" type="line" smooth="yes"/>
      <point x="344" y="-15"/>
      <point x="280" y="49"/>
    </contour>
    <contour>
      <point x="68" y="97" type="curve" smooth="yes"/>
      <point x="265" y="293" type="line"/>
      <point x="265" y="229" type="line"/>
      <point x="68" y="427" type="line" smooth="yes"/>
      <point x="20" y="475"/>
      <point x="84" y="539"/>
      <point x="132" y="491" type="curve" smooth="yes"/>
      <point x="329" y="293" type="line" smooth="yes"/>
      <point x="346" y="275"/>
      <point x="346" y="247"/>
      <point x="329" y="229" type="curve" smooth="yes"/>
      <point x="132" y="33" type="line" smooth="yes"/>
      <point x="84" y="-15"/>
      <point x="20" y="49"/>
    </contour>
  </outline>
</glyph>
<glyph name="Oslash" format="2">
  <advance width="732"/>
  <unicode hex="00D8"/>
  <outline>
    <contour>
      <point x="604" y="688" type="curve" smooth="yes"/>
      <point x="510" y="512"/>
      <point x="501" y="155"/>
      <point x="414" y="-7" type="curve" smooth="yes"/>
      <point x="403" y="-27"/>
      <point x="395" y="-45"/>
      <point x="374" y="-93" type="curve" smooth="yes"/>
      <point x="286" y="-294"/>
      <point x="82" y="10"/>
      <point x="160" y="83" type="curve" smooth="yes"/>
      <point x="293" y="210"/>
      <point x="200" y="40"/>
      <point x="198" y="45" type="curve" smooth="yes"/>
      <point x="190" y="69"/>
      <point x="165" y="132"/>
      <point x="165" y="221" type="curve" smooth="yes"/>
      <point x="165" y="424"/>
      <point x="298" y="570"/>
      <point x="484" y="570" type="curve" smooth="yes"/>
      <point x="671" y="570"/>
      <point x="807" y="426"/>
      <point x="807" y="221" type="curve" smooth="yes"/>
      <point x="807" y="113"/>
      <point x="769" y="22"/>
      <point x="707" y="-41" type="curve" smooth="yes"/>
      <point x="650" y="-98"/>
      <point x="560" y="-118"/>
      <point x="447" y="-99" type="curve" smooth="yes"/>
      <point x="380" y="-88"/>
      <point x="395" y="1"/>
      <point x="461" y="-11" type="curve" smooth="yes"/>
      <point x="538" y="-23"/>
      <point x="605" y="-16"/>
      <point x="643" y="23" type="curve" smooth="yes"/>
      <point x="690" y="70"/>
      <point x="717" y="139"/>
      <point x="717" y="221" type="curve" smooth="yes"/>
      <point x="717" y="374"/>
      <point x="623" y="480"/>
      <point x="484" y="480" type="curve" smooth="yes"/>
      <point x="346" y="480"/>
      <point x="255" y="372"/>
      <point x="255" y="221" type="curve" smooth="yes"/>
      <point x="255" y="146"/>
      <point x="278" y="93"/>
      <point x="284" y="73" type="curve" smooth="yes"/>
      <point x="319" y="-35"/>
      <point x="229" y="24"/>
      <point x="222" y="17" type="curve" smooth="yes"/>
      <point x="217" y="13"/>
      <point x="287" y="-69"/>
      <point x="292" y="-57" type="curve" smooth="yes"/>
      <point x="313" y="-7"/>
      <point x="323" y="13"/>
      <point x="334" y="35" type="curve" smooth="yes"/>
      <point x="413" y="183"/>
      <point x="420" y="536"/>
      <point x="524" y="730" type="curve" smooth="yes"/>
      <point x="556" y="790"/>
      <point x="636" y="747"/>
    </contour>
  </outline>
</glyph>
<glyph name="Thorn" format="2">
  <advance width="555"/>
  <unicode hex="00DE"/>
  <outline>
    <contour>
      <point x="208" y="151" type="curve" smooth="yes"/>
      <point x="308" y="105"/>
      <point x="373" y="93"/>
      <point x="425" y="95" type="curve" smooth="yes"/>
      <point x="497" y="97"/>
      <point x="550" y="141"/>
      <point x="550" y="218" type="curve" smooth="yes"/>
      <point x="550" y="297"/>
      <point x="492" y="347"/>
      <point x="388" y="363" type="curve" smooth="yes"/>
      <point x="358" y="367"/>
      <point x="324" y="373"/>
      <point x="290" y="381" type="curve" smooth="yes"/>
      <point x="166" y="412"/>
      <point x="93" y="492"/>
      <point x="81" y="559" type="curve" smooth="yes"/>
      <point x="49" y="738"/>
      <point x="290" y="649"/>
      <point x="290" y="404" type="curve" smooth="yes"/>
      <point x="290" y="208"/>
      <point x="290" y="50"/>
      <point x="290" y="-80" type="curve" smooth="yes"/>
      <point x="290" y="-147"/>
      <point x="200" y="-147"/>
      <point x="200" y="-80" type="curve" smooth="yes"/>
      <point x="200" y="114"/>
      <point x="200" y="272"/>
      <point x="200" y="404" type="curve" smooth="yes"/>
      <point x="200" y="415"/>
      <point x="168" y="583"/>
      <point x="169" y="575" type="curve" smooth="yes"/>
      <point x="177" y="535"/>
      <point x="237" y="487"/>
      <point x="312" y="469" type="curve" smooth="yes"/>
      <point x="342" y="461"/>
      <point x="374" y="455"/>
      <point x="402" y="451" type="curve" smooth="yes"/>
      <point x="558" y="428"/>
      <point x="640" y="337"/>
      <point x="640" y="218" type="curve" smooth="yes"/>
      <point x="640" y="91"/>
      <point x="547" y="9"/>
      <point x="429" y="5" type="curve" smooth="yes"/>
      <point x="367" y="3"/>
      <point x="288" y="15"/>
      <point x="170" y="69" type="curve" smooth="yes"/>
      <point x="109" y="97"/>
      <point x="146" y="179"/>
    </contour>
  </outline>
</glyph>
<glyph name="germandbls" format="2">
  <advance width="551"/>
  <unicode hex="00DF"/>
  <outline>
    <contour>
      <point x="325" y="10" type="curve" smooth="yes"/>
      <point x="498" y="-73"/>
      <point x="601" y="-51"/>
      <point x="546" y="77" type="curve" smooth="yes"/>
      <point x="500" y="182"/>
      <point x="434" y="268"/>
      <point x="368" y="311" type="curve" smooth="yes"/>
      <point x="354" y="321"/>
      <point x="316" y="341"/>
      <point x="306" y="338" type="curve" smooth="yes"/>
      <point x="303" y="337"/>
      <point x="385" y="332"/>
      <point x="390" y="332" type="curve" smooth="yes"/>
      <point x="414" y="331"/>
      <point x="436" y="338"/>
      <point x="452" y="353" type="curve" smooth="yes"/>
      <point x="473" y="370"/>
      <point x="489" y="393"/>
      <point x="489" y="422" type="curve" smooth="yes"/>
      <point x="489" y="486"/>
      <point x="448" y="528"/>
      <point x="386" y="528" type="curve" smooth="yes"/>
      <point x="332" y="528"/>
      <point x="303" y="432"/>
      <point x="268" y="391" type="curve" smooth="yes"/>
      <point x="196" y="305"/>
      <point x="225" y="130"/>
      <point x="278" y="-69" type="curve" smooth="yes"/>
      <point x="295" y="-134"/>
      <point x="208" y="-157"/>
      <point x="190" y="-91" type="curve" smooth="yes"/>
      <point x="123" y="162"/>
      <point x="107" y="339"/>
      <point x="200" y="449" type="curve" smooth="yes"/>
      <point x="281" y="545"/>
      <point x="259" y="618"/>
      <point x="386" y="618" type="curve" smooth="yes"/>
      <point x="496" y="618"/>
      <point x="579" y="536"/>
      <point x="579" y="422" type="curve" smooth="yes"/>
      <point x="579" y="365"/>
      <point x="551" y="318"/>
      <point x="512" y="285" type="curve" smooth="yes"/>
      <point x="478" y="256"/>
      <point x="434" y="239"/>
      <point x="384" y="242" type="curve" smooth="yes"/>
      <point x="250" y="251"/>
      <point x="199" y="396"/>
      <point x="276" y="422" type="curve" smooth="yes"/>
      <point x="313" y="436"/>
      <point x="364" y="422"/>
      <point x="418" y="387" type="curve" smooth="yes"/>
      <point x="496" y="336"/>
      <point x="574" y="238"/>
      <point x="628" y="113" type="curve" smooth="yes"/>
      <point x="715" y="-87"/>
      <point x="557" y="-201"/>
      <point x="287" y="-72" type="curve" smooth="yes"/>
      <point x="226" y="-42"/>
      <point x="265" y="39"/>
    </contour>
  </outline>
</glyph>
<glyph name="quoteleft" format="2">
  <advance width="274"/>
  <unicode hex="2018"/>
  <outline>
    <contour>
      <point x="318" y="502" type="curve" smooth="yes"/>
      <point x="293" y="460"/>
      <point x="269" y="387"/>
      <point x="295" y="363" type="curve" smooth="yes"/>
      <point x="345" y="318"/>
      <point x="285" y="251"/>
      <point x="235" y="297" type="curve" smooth="yes"/>
      <point x="177" y="349"/>
      <point x="184" y="451"/>
      <point x="240" y="548" type="curve" smooth="yes"/>
      <point x="274" y="606"/>
      <point x="352" y="561"/>
    </contour>
  </outline>
</glyph>
<glyph name="quotesinglbase" format="2">
  <advance width="274"/>
  <unicode hex="201A"/>
  <outline>
    <contour>
      <point x="196" y="-211" type="curve" smooth="yes"/>
      <point x="221" y="-169"/>
      <point x="245" y="-96"/>
      <point x="219" y="-72" type="curve" smooth="yes"/>
      <point x="169" y="-27"/>
      <point x="229" y="40"/>
      <point x="279" y="-6" type="curve" smooth="yes"/>
      <point x="337" y="-58"/>
      <point x="330" y="-160"/>
      <point x="274" y="-257" type="curve" smooth="yes"/>
      <point x="240" y="-315"/>
      <point x="162" y="-270"/>
    </contour>
  </outline>
</glyph>
<glyph name="guilsinglleft" format="2">
  <advance width="397"/>
  <unicode hex="2039"/>
  <outline>
    <contour>
      <point x="447" y="304" type="curve" smooth="yes"/>
      <point x="390" y="253"/>
      <point x="293" y="260"/>
      <point x="245" y="217" type="curve" smooth="yes"/>
      <point x="206" y="181"/>
      <point x="240" y="168"/>
      <point x="295" y="117" type="curve" smooth="yes"/>
      <point x="371" y="46"/>
      <point x="398" y="22"/>
      <point x="413" y="11" type="curve" smooth="yes"/>
      <point x="468" y="-28"/>
      <point x="416" y="-102"/>
      <point x="361" y="-63" type="curve" smooth="yes"/>
      <point x="343" y="-50"/>
      <point x="324" y="-33"/>
      <point x="233" y="51" type="curve" smooth="yes"/>
      <point x="115" y="161"/>
      <point x="101" y="207"/>
      <point x="185" y="283" type="curve" smooth="yes"/>
      <point x="257" y="348"/>
      <point x="349" y="337"/>
      <point x="387" y="372" type="curve" smooth="yes"/>
      <point x="437" y="417"/>
      <point x="497" y="349"/>
    </contour>
  </outline>
</glyph>
<glyph name="Euro" format="2">
  <advance width="606"/>
  <unicode hex="20AC"/>
  <outline>
    <contour>
      <point x="653" y="-24" type="curve" smooth="yes"/>
      <point x="619" y="-72"/>
      <point x="572" y="-97"/>
      <point x="518" y="-97" type="curve" smooth="yes"/>
      <point x="347" y="-97"/>
      <point x="223" y="24"/>
      <point x="223" y="220" type="curve" smooth="yes"/>
      <point x="223" y="414"/>
      <point x="345" y="537"/>
      <point x="514" y="537" type="curve" smooth="yes"/>
      <point x="552" y="537"/>
      <point x="584" y="539"/>
      <point x="609" y="543" type="curve" smooth="yes"/>
      <point x="676" y="552"/>
      <point x="689" y="463"/>
      <point x="623" y="453" type="curve" smooth="yes"/>
      <point x="594" y="449"/>
      <point x="558" y="447"/>
      <point x="514" y="447" type="curve" smooth="yes"/>
      <point x="391" y="447"/>
      <point x="313" y="360"/>
      <point x="313" y="220" type="curve" smooth="yes"/>
      <point x="313" y="78"/>
      <point x="393" y="-7"/>
      <point x="518" y="-7" type="curve" smooth="yes"/>
      <point x="544" y="-7"/>
      <point x="563" y="4"/>
      <point x="579" y="28" type="curve" smooth="yes"/>
      <point x="618" y="83"/>
      <point x="691" y="32"/>
    </contour>
    <contour>
      <point x="110" y="425" type="curve" smooth="yes"/>
      <point x="144" y="425"/>
      <point x="192" y="439"/>
      <point x="252" y="424" type="curve" smooth="yes"/>
      <point x="338" y="402"/>
      <point x="371" y="364"/>
      <point x="444" y="343" type="curve" smooth="yes"/>
      <point x="502" y="326"/>
      <point x="520" y="345"/>
      <point x="576" y="345" type="curve" smooth="yes"/>
      <point x="644" y="345"/>
      <point x="644" y="255"/>
      <point x="576" y="255" type="curve" smooth="yes"/>
      <point x="535" y="255"/>
      <point x="498" y="234"/>
      <point x="418" y="257" type="curve" smooth="yes"/>
      <point x="333" y="282"/>
      <point x="304" y="318"/>
      <point x="230" y="336" type="curve" smooth="yes"/>
      <point x="186" y="347"/>
      <point x="157" y="335"/>
      <point x="110" y="335" type="curve" smooth="yes"/>
      <point x="43" y="335"/>
      <point x="43" y="425"/>
    </contour>
    <contour>
      <point x="110" y="267" type="curve" smooth="yes"/>
      <point x="144" y="267"/>
      <point x="193" y="281"/>
      <point x="252" y="266" type="curve" smooth="yes"/>
      <point x="338" y="244"/>
      <point x="370" y="208"/>
      <point x="444" y="185" type="curve" smooth="yes"/>
      <point x="462" y="180"/>
      <point x="497" y="172"/>
      <point x="501" y="180" type="curve" smooth="yes"/>
      <point x="528" y="242"/>
      <point x="610" y="206"/>
      <point x="583" y="144" type="curve" smooth="yes"/>
      <point x="564" y="99"/>
      <point x="514" y="69"/>
      <point x="418" y="99" type="curve" smooth="yes"/>
      <point x="332" y="126"/>
      <point x="304" y="160"/>
      <point x="230" y="178" type="curve" smooth="yes"/>
      <point x="187" y="189"/>
      <point x="157" y="177"/>
      <point x="110" y="177" type="curve" smooth="yes"/>
      <point x="43" y="177"/>
      <point x="43" y="267"/>
    </contour>
  </outline>
</glyph>
<glyph name="minus" format="2">
  <advance width="476"/>
  <unicode hex="2212"/>
  <outline>
    <contour>
      <point x="547" y="155" type="curve" smooth="yes"/>
      <point x="483" y="96"/>
      <point x="368" y="86"/>
      <point x="186" y="145" type="curve" smooth="yes"/>
      <point x="122" y="166"/>
      <point x="150" y="252"/>
      <point x="214" y="231" type="curve" smooth="yes"/>
      <point x="337" y="191"/>
      <point x="442" y="181"/>
      <point x="485" y="221" type="curve" smooth="yes"/>
      <point x="535" y="267"/>
      <point x="596" y="201"/>
    </contour>
  </outline>
</glyph>
<glyph name="e" format="2">
  <advance width="588"/>
  <outline>
    <contour>
      <point x="499.299117733865" y="28.77174333940991" type="curve" smooth="yes"/>
      <point x="479.8807949224671" y="19.637087463834842"/>
      <point x="411.2351553824386" y="-7.701420708904091"/>
      <point x="335.80242851834583" y="-11.897341401791124" type="curve" smooth="yes"/>
      <point x="175.86739421920146" y="-20.7936752323638"/>
      <point x="50.02573836290173" y="76.44219411022308"/>
      <point x="50.026182253470736" y="271.026293680166" type="curve" smooth="yes"/>
      <point x="50.02656632747966" y="439.38917501348175"/>
      <point x="154.82714448343594" y="547.0225448088296"/>
      <point x="305.0249633897845" y="547.0261761620086" type="curve" smooth="yes"/>
      <point x="438.61031990196165" y="547.0294058734155"/>
      <point x="517.0042639878592" y="456.6016657770489"/>
      <point x="539.6875985474221" y="360.5126825861523" type="curve" smooth="yes"/>
      <point x="558.0834525042272" y="282.5859167045264"/>
      <point x="524.767180295309" y="220.00651791340073"/>
      <point x="422.009441639032" y="220.0122170769857" type="curve" smooth="yes"/>
      <point x="384.74860154969105" y="220.01428364273303"/>
      <point x="357.1777703752202" y="220.01943186262736"/>
      <point x="310.01934019291343" y="220.0209436719932" type="curve" smooth="yes"/>
      <point x="243.70475344423656" y="220.02306959121807"/>
      <point x="223.7894630767315" y="220.0207588853467"/>
      <point x="190.0231878013741" y="220.01570821790477" type="curve" smooth="yes"/>
      <point x="115.02318864037512" y="220.00448992243068"/>
      <point x="115.00823091307633" y="320.0044888037627"/>
      <point x="190.0082300740753" y="320.01570709923675" type="curve" smooth="yes"/>
      <point x="212.90548500673452" y="320.01913200823424"/>
      <point x="265.0539497872447" y="320.0223852280707"/>
      <point x="310.0225460024262" y="320.0209436206071" type="curve" smooth="yes"/>
      <point x="349.0823518585726" y="320.0196914376975"/>
      <point x="377.028508102863" y="320.01471196940145"/>
      <point x="422.01498785242717" y="320.0122169231833" type="curve" smooth="yes"/>
      <point x="445.4639739764168" y="320.01091639234664"/>
      <point x="446.56052972655806" y="319.7549420397178"/>
      <point x="442.3626549016266" y="337.5375798803375" type="curve" smooth="yes"/>
      <point x="428.7033570842456" y="395.3997974007526"/>
      <point x="385.4689124775692" y="447.02812103712444"/>
      <point x="305.02738110353243" y="447.02617619123527" type="curve" smooth="yes"/>
      <point x="207.33840955327122" y="447.02381435162965"/>
      <point x="150.02643205573904" y="380.52963121803174"/>
      <point x="150.02618225321055" y="271.0260655574314" type="curve" smooth="yes"/>
      <point x="150.02588252128984" y="139.6354256518623"/>
      <point x="222.25428343552227" y="81.94116599049097"/>
      <point x="330.248546822548" y="87.94831147357988" type="curve" smooth="yes"/>
      <point x="386.84890225201724" y="91.09668768168325"/>
      <point x="442.1619169711995" y="112.40556050110744"/>
      <point x="456.73230330960547" y="119.25967794823305" type="curve" smooth="yes"/>
      <point x="524.598254266223" y="151.1847887664275"/>
      <point x="567.1650686904825" y="60.696854157604356"/>
    </contour>
  </outline>
</glyph>
<glyph name="i" format="2">
  <advance width="257"/>
  <outline>
    <contour>
      <point x="77.01850781517234" y="40.02802033092589" type="curve" smooth="yes"/>
      <point x="77.0235576744886" y="66.55974747607605"/>
      <point x="77.02618498351644" y="85.14979500299063"/>
      <point x="77.02618322050094" y="143.0261800452631" type="curve" smooth="yes"/>
      <point x="77.02617548321857" y="397.0261761766219" type="line" smooth="yes"/>
      <point x="77.0261736222372" y="458.11858994354407"/>
      <point x="77.02535100766433" y="481.2116220766693"/>
      <point x="77.02093840046095" y="497.0069721317878" type="curve" smooth="yes"/>
      <point x="76.99998631480393" y="572.0069692051884"/>
      <point x="176.99998241267147" y="572.0349053193978"/>
      <point x="177.0209344983285" y="497.0349082459972" type="curve" smooth="yes"/>
      <point x="177.02489768156946" y="482.8483143030771"/>
      <point x="177.02617381177805" y="451.89633177274504"/>
      <point x="177.0261754832185" y="397.02617922279615" type="curve" smooth="yes"/>
      <point x="177.0261832205009" y="143.02618309143728" type="line" smooth="yes"/>
      <point x="177.02618468290484" y="95.0182933633462"/>
      <point x="177.02269481226637" y="62.01679265012536"/>
      <point x="177.01850600384265" y="40.00898704599431" type="curve" smooth="yes"/>
      <point x="177.004231040144" y="-34.99101159550842"/>
      <point x="77.00423285147367" y="-34.97197831057684"/>
    </contour>
    <contour>
      <point x="102.20455082804823" y="695.4273289684103" type="curve" smooth="yes"/>
      <point x="105.52313165037101" y="697.3245291719413"/>
      <point x="29.48873670551138" y="625.8408542417828"/>
      <point x="80.50429098704087" y="755.3503172916801" type="curve" smooth="yes"/>
      <point x="107.99207893906056" y="825.1315577041635"/>
      <point x="201.0337328223717" y="788.4811737681373"/>
      <point x="173.545944870352" y="718.6999333556539" type="curve" smooth="yes"/>
      <point x="170.16781382072537" y="710.1241186946002"/>
      <point x="202.2058538620977" y="637.4090016131332"/>
      <point x="151.83556729838475" y="608.6128013585616" type="curve" smooth="yes"/>
      <point x="86.7246715909982" y="571.3895390058092"/>
      <point x="37.09365512066168" y="658.2040666156579"/>
    </contour>
  </outline>
</glyph>
<glyph name="n" format="2">
  <advance width="600"/>
  <outline>
    <contour>
      <point x="437.02199515131673" y="40.0287352322097" type="curve" smooth="yes"/>
      <point x="437.0251290483969" y="63.274176515002246"/>
      <point x="437.02618224993245" y="80.63807090913159"/>
      <point x="437.02618031902" y="144.0261800300322" type="curve" smooth="yes"/>
      <point x="437.0261750491387" y="317.0261773950915" type="line" smooth="yes"/>
      <point x="437.0261725285138" y="399.77341179751926"/>
      <point x="397.6322659706046" y="447.0296852108095"/>
      <point x="335.02904470265963" y="447.02652530616393" type="curve" smooth="yes"/>
      <point x="241.22974669682878" y="447.02179077603074"/>
      <point x="166.99873890979427" y="401.86859100059087"/>
      <point x="167.00000211472576" y="272.00048600640224" type="curve" smooth="yes"/>
      <point x="167.00122804929" y="134.00166768023814" type="line" smooth="yes"/>
      <point x="167.00126768640564" y="129.1747967512614"/>
      <point x="81.65834633846367" y="74.36901845636363"/>
      <point x="81.65880705272085" y="74.36947917062781" type="curve" smooth="yes"/>
      <point x="81.65925460375219" y="74.36992672166596"/>
      <point x="67.0261864037974" y="129.27472330894088"/>
      <point x="67.0261862590597" y="134.02618018234094" type="curve" smooth="yes"/>
      <point x="67.02617797346596" y="406.026176039544" type="line" smooth="yes"/>
      <point x="67.02617622900163" y="463.293559787858"/>
      <point x="67.0251939251193" y="470.4293249770711"/>
      <point x="67.02093993548492" y="496.0126262075494" type="curve" smooth="yes"/>
      <point x="67.00846894062398" y="571.0126251707113"/>
      <point x="167.00846755817318" y="571.0292531638593"/>
      <point x="167.0209385530341" y="496.0292542006973" type="curve" smooth="yes"/>
      <point x="167.02379316686134" y="478.861735773743"/>
      <point x="167.0261768028538" y="444.4551080540954"/>
      <point x="167.0261779734659" y="406.02617908571824" type="curve" smooth="yes"/>
      <point x="167.02618625905964" y="134.02618322851512" type="line" smooth="yes"/>
      <point x="167.0261908223117" y="-15.776546138356652"/>
      <point x="152.38359598429128" y="3.672911865103615"/>
      <point x="152.36948570994102" y="3.6588015905384736" type="curve" smooth="yes"/>
      <point x="152.34780902739084" y="3.637124907657966"/>
      <point x="67.00309297233518" y="-93.10268776984871"/>
      <point x="67.00122805323596" y="134.00077931426426" type="curve" smooth="yes"/>
      <point x="67.00000211945633" y="271.99951332343943" type="line" smooth="yes"/>
      <point x="66.99811445135325" y="466.0676912486494"/>
      <point x="194.8551785620081" y="547.0194501418672"/>
      <point x="335.02399719126214" y="547.0265251787771" type="curve" smooth="yes"/>
      <point x="446.06452884878615" y="547.0321299621212"/>
      <point x="537.0261705782582" y="463.796533709654"/>
      <point x="537.0261750491387" y="317.02618044126575" type="curve" smooth="yes"/>
      <point x="537.02618031902" y="144.02618307620645" type="line" smooth="yes"/>
      <point x="537.0261820420329" y="87.46300744494181"/>
      <point x="537.0247907160826" y="60.75788163185056"/>
      <point x="537.021994242526" y="40.015253461683045" type="curve" smooth="yes"/>
      <point x="537.0118829146311" y="-34.98474585672393"/>
      <point x="437.0118838234217" y="-34.97126408619728"/>
    </contour>
  </outline>
</glyph>
